<svg xmlns="http://www.w3.org/2000/svg" width="466" height="632" viewBox="0 0 466 632">
    <defs>
        <linearGradient id="c6rfpy6fga" x1="100%" x2="0%" y1="50%" y2="50%">
            <stop offset="0%" stop-color="#E9D573"/>
            <stop offset="21.007%" stop-color="#DB9B72"/>
            <stop offset="45.879%" stop-color="#CD666D"/>
            <stop offset="78.462%" stop-color="#6C87BF"/>
            <stop offset="99.945%" stop-color="#7FADB8"/>
        </linearGradient>
    </defs>
    <g fill="none" fill-rule="evenodd">
        <g fill="url(#c6rfpy6fga)" transform="translate(-887 -1730)">
            <g>
                <path d="M888.49 1321.63c6.874 5.791 64.9 80.92 165.503 40.46 100.603-40.46 160.75-159.756 210.35-208.843 49.6-49.087 96.095-83.99 87.66-185.463-8.433-101.473-64.978-88.498-167.746-146.547-102.767-58.05-152.9-96.264-218.514-71.638-43.743 16.418-63.497 67.385-59.26 152.903-16.58 275.557-22.577 415.266-17.994 419.127z" transform="translate(0 988) matrix(-1 0 0 1 2240 0)"/>
            </g>
        </g>
    </g>
</svg>
