<svg xmlns="http://www.w3.org/2000/svg" width="58" height="61" viewBox="0 0 58 61">
    <defs>
        <linearGradient id="rblgthucna" x1="100%" x2="0%" y1="50%" y2="50%">
            <stop offset="0%" stop-color="#E9D573"/>
            <stop offset="21.007%" stop-color="#DB9B72"/>
            <stop offset="45.879%" stop-color="#CD666D"/>
            <stop offset="78.462%" stop-color="#6C87BF"/>
            <stop offset="99.945%" stop-color="#7FADB8"/>
        </linearGradient>
        <filter id="jbh4hpq5rb">
            <feColorMatrix in="SourceGraphic" values="0 0 0 0 1.000000 0 0 0 0 1.000000 0 0 0 0 1.000000 0 0 0 1.000000 0"/>
        </filter>
    </defs>
    <g fill="none" fill-rule="evenodd">
        <g>
            <g>
                <g>
                    <g transform="translate(-260 -1814) translate(0 988) translate(232 791) translate(28 35.085)">
                        <ellipse cx="29" cy="29.926" fill="url(#rblgthucna)" rx="29" ry="29.926"/>
                        <g stroke-linecap="round" stroke-linejoin="round" filter="url(#jbh4hpq5rb)">
                            <g stroke="#2780FF" stroke-width="2">
                                <path d="M16 3.096h3.77c1.784 0 3.23 1.732 3.23 3.87v1.29M8.571 13.415L0 13.415 0 0 12 0 12 7.582M12 11.351H24V24.766H12z" transform="translate(17 17.543)"/>
                                <path d="M19 0L16 3.096 19 6.191M8 21.67H4.23C2.447 21.67 1 19.938 1 17.8v-1.29" transform="translate(17 17.543)"/>
                                <path d="M5 24.766L8 21.67 5 18.574" transform="translate(17 17.543)"/>
                            </g>
                        </g>
                    </g>
                </g>
            </g>
        </g>
    </g>
</svg>
