<svg xmlns="http://www.w3.org/2000/svg" width="16" height="16" viewBox="0 0 16 16">
    <g fill="none" fill-rule="evenodd">
        <g fill="#FA8231">
            <g>
                <g>
                    <path d="M28.314.205l2.283 4.852 5.103.778c.132.02.242.118.283.25.041.133.007.28-.089.377l-3.692 3.775.872 5.333c.023.137-.031.277-.14.359-.107.082-.25.093-.369.028l-4.564-2.517-4.565 2.518c-.119.065-.262.054-.37-.028-.108-.082-.162-.221-.139-.359l.872-5.334-3.693-3.775c-.096-.098-.13-.244-.089-.377.041-.132.15-.23.283-.25l5.103-.778L27.687.205c.059-.125.18-.205.314-.205.133 0 .254.08.313.205z" transform="translate(-1067 -1092) translate(1010 1053) translate(37 39)"/>
                </g>
            </g>
        </g>
    </g>
</svg>
